<svg width="22" height="22" viewBox="0 0 22 22" fill="none" xmlns="http://www.w3.org/2000/svg">
<path d="M18.8976 0H3.10269C1.3912 0 0.00012207 1.39108 0.00012207 3.10256V13.2564C0.00012207 14.9679 1.3912 16.359 3.10269 16.359H6.76935V21.1538C6.76935 21.4257 6.90023 21.6818 7.12135 21.8398C7.34248 22 7.62566 22.0417 7.88402 21.9571L11.0013 20.9181L14.1185 21.9571C14.2065 21.9853 14.2967 22 14.3859 22C14.5607 22 14.7345 21.9447 14.88 21.8398C15.1011 21.6807 15.232 21.4257 15.232 21.1538V16.359H18.8987C20.6102 16.359 22.0013 14.9679 22.0013 13.2564V3.10256C22.0013 1.39108 20.609 0 18.8976 0ZM11.0001 15.7949C8.97838 15.7949 7.33346 14.1499 7.33346 12.1282C7.33346 10.1065 8.97838 8.46154 11.0001 8.46154C13.0219 8.46154 14.6668 10.1065 14.6668 12.1282C14.6668 14.1499 13.0219 15.7949 11.0001 15.7949ZM13.5386 19.9794L11.2675 19.2224C11.0938 19.1648 10.9065 19.1648 10.7316 19.2224L8.46053 19.9794V16.8182C9.21981 17.2311 10.0761 17.4872 10.999 17.4872C11.9219 17.4872 12.7782 17.2311 13.5375 16.8182V19.9794H13.5386ZM20.3078 13.2564C20.3078 14.0337 19.6749 14.6667 18.8976 14.6667H15.6957C16.1131 13.9119 16.3591 13.0511 16.3591 12.1282C16.3591 9.17344 13.9549 6.76923 11.0001 6.76923C8.04535 6.76923 5.64115 9.17344 5.64115 12.1282C5.64115 13.0511 5.8871 13.9119 6.30453 14.6667H3.10269C2.32535 14.6667 1.69243 14.0337 1.69243 13.2564V3.10256C1.69243 2.32523 2.32535 1.69231 3.10269 1.69231H18.8976C19.6749 1.69231 20.3078 2.32523 20.3078 3.10256V13.2564ZM17.4873 4.23077C17.4873 4.69785 17.1082 5.07692 16.6411 5.07692H5.3591C4.89202 5.07692 4.51294 4.69785 4.51294 4.23077C4.51294 3.76369 4.89202 3.38462 5.3591 3.38462H16.6411C17.1082 3.38462 17.4873 3.76369 17.4873 4.23077Z" fill="#251F47"/>
</svg>
